 <svg version="1.0" xmlns="http://www.w3.org/2000/svg" viewBox="0 0 841.9 595.3" preserveAspectRatio="xMidYMid meet">
<metadata>
Created by potrace 1.12, written by Peter Selinger 2001-2015
</metadata>
<g transform="translate(0.000000,467.000000) scale(0.100000,-0.100000)" fill="#000000" stroke="none">
<path d="M5580 4549 c-41 -17 -60 -40 -60 -75 0 -30 -4 -34 -37 -43 -21 -5
-72 -12 -113 -16 -89 -7 -95 -11 -118 -56 l-17 -34 -155 0 c-85 0 -409 6 -720
14 -342 8 -685 11 -870 7 -1094 -24 -1874 -36 -2627 -42 l-863 -7 0 -60 0 -60
1023 9 c562 5 1737 9 2611 9 1776 0 1620 7 1634 -74 7 -41 10 -44 58 -62 37
-14 68 -37 110 -82 l59 -62 -145 -6 c-80 -4 -725 -12 -1435 -19 -939 -9 -1298
-9 -1318 -1 -17 6 -32 23 -38 41 -12 32 -10 32 -159 51 -47 6 -88 13 -92 17
-3 4 -10 27 -15 51 -7 36 -15 47 -43 62 -48 26 -144 26 -188 -1 -32 -20 -34
-23 -36 -70 -1 -21 -8 -27 -46 -37 -25 -6 -65 -12 -90 -12 -79 -2 -118 -18
-125 -51 -4 -17 -15 -35 -25 -40 -13 -7 -102 -7 -272 0 -139 6 -526 13 -861
17 l-607 6 0 -70 0 -70 118 -8 c64 -5 456 -9 871 -9 845 -2 772 5 786 -76 6
-34 11 -40 53 -56 58 -22 149 -105 173 -159 10 -22 19 -56 19 -75 0 -42 21
-75 59 -94 24 -13 29 -23 39 -93 17 -112 18 -110 -37 -137 -48 -25 -61 -41
-61 -76 0 -14 -24 -31 -83 -62 -96 -50 -182 -130 -217 -203 -21 -45 -25 -69
-31 -240 -8 -182 -9 -191 -31 -208 -66 -52 -62 -39 -55 -166 9 -156 22 -219
63 -306 42 -89 58 -105 74 -76 15 29 28 26 22 -5 -6 -34 35 -77 113 -116 33
-17 62 -33 65 -37 3 -4 17 -12 33 -18 15 -7 27 -17 27 -23 0 -5 22 -9 50 -9
27 1 57 -4 65 -11 14 -12 20 -7 16 14 -1 4 3 14 10 22 6 7 8 17 5 22 -10 16
32 21 51 7 14 -11 16 -16 6 -26 -22 -22 -15 -39 16 -39 33 0 54 -20 45 -43 -3
-9 -21 -28 -41 -43 -34 -26 -35 -26 -95 -13 -49 11 -63 19 -72 39 -7 16 -17
24 -28 22 -10 -2 -18 1 -18 7 0 6 -4 11 -10 11 -19 0 -10 -48 14 -77 l23 -28
-38 -240 c-21 -132 -42 -260 -48 -285 -5 -25 -6 -49 -1 -54 13 -13 15 -1 83
434 21 136 24 145 45 148 13 2 28 -1 35 -6 8 -6 36 -6 76 -1 36 5 68 6 72 2 7
-7 94 -351 140 -555 8 -32 17 -58 22 -58 17 0 19 34 4 64 -9 17 -44 146 -78
286 -34 140 -66 261 -71 267 -7 8 -6 23 1 44 6 18 11 45 11 61 0 19 6 31 17
34 10 3 29 11 43 19 14 7 40 16 58 20 40 8 142 103 142 131 0 20 -14 50 -46
99 l-19 30 35 -22 c19 -12 45 -41 58 -65 13 -24 27 -44 31 -46 12 -4 79 105
87 142 3 17 15 41 27 53 19 22 20 30 14 195 -6 144 -10 175 -23 183 -60 37
-58 29 -64 221 -5 170 -7 182 -33 236 -37 75 -127 158 -229 209 -63 31 -82 46
-90 70 -6 16 -29 42 -52 59 l-42 29 4 88 4 88 40 36 c34 29 42 44 49 89 16
105 72 185 152 220 29 12 59 26 67 30 8 4 18 25 23 48 4 22 14 46 22 52 16 13
93 15 1870 25 1002 7 1082 6 1095 -10 7 -9 26 -23 41 -30 23 -12 29 -24 38
-78 6 -35 11 -79 11 -98 0 -32 -5 -37 -45 -57 -46 -22 -49 -26 -59 -72 -4 -19
-24 -34 -81 -64 -104 -53 -176 -121 -217 -204 -33 -66 -33 -68 -39 -252 -4
-102 -7 -186 -8 -187 0 -1 -17 -11 -36 -23 l-35 -22 0 -104 c0 -148 16 -235
60 -330 21 -45 43 -84 49 -88 7 -4 20 3 31 16 l19 23 1 -36 c0 -30 7 -43 37
-69 20 -18 61 -43 90 -56 29 -13 53 -28 53 -34 0 -5 9 -10 20 -10 10 0 23 -6
27 -14 5 -8 30 -16 58 -18 28 -2 57 -6 65 -9 8 -2 14 1 15 8 0 6 3 15 8 19 4
4 7 16 7 26 0 19 25 24 49 9 11 -7 18 -2 28 16 11 21 11 28 1 35 -17 10 -26
10 -33 -2 -3 -5 -25 -10 -49 -10 -23 0 -47 -5 -53 -11 -8 -8 -19 -6 -42 5 -41
22 -42 48 -1 40 16 -4 43 -1 60 6 42 17 102 17 135 0 23 -12 28 -12 36 0 8 13
10 13 19 0 19 -29 7 -70 -21 -70 -10 0 -23 -9 -29 -21 -7 -11 -18 -18 -25 -15
-16 6 -39 -19 -30 -34 3 -5 20 -10 36 -10 47 0 48 -26 2 -71 l-39 -40 -45 15
c-24 9 -52 16 -61 16 -10 0 -20 10 -24 25 -5 19 -13 25 -35 25 -24 0 -29 -4
-29 -23 0 -13 11 -33 26 -46 22 -19 36 -22 117 -22 146 0 135 -5 143 60 8 67
19 91 42 91 10 0 26 6 37 13 11 8 34 17 52 20 19 4 52 26 82 55 60 58 65 88
26 147 -15 20 -24 39 -21 42 11 11 68 -44 87 -84 11 -24 22 -43 24 -43 9 0 67
103 81 143 8 25 22 51 30 58 11 9 14 47 14 183 0 183 -1 188 -52 219 l-26 16
-4 173 c-3 173 -3 174 -36 240 -41 84 -127 164 -232 216 -60 30 -78 44 -92 73
-9 20 -33 46 -54 58 l-36 22 4 96 c4 89 6 97 29 112 13 9 33 26 45 38 l21 23
601 0 602 1 0 76 0 76 -212 -6 c-484 -15 -958 -20 -958 -10 0 6 15 30 34 55
31 40 62 60 138 87 20 8 28 19 33 49 13 78 -13 74 505 73 l460 -2 0 61 0 60
-455 0 c-498 0 -455 -5 -503 57 -14 18 -37 25 -126 38 -59 8 -112 18 -117 21
-5 3 -9 21 -9 40 0 20 -8 42 -19 53 -36 36 -136 52 -191 30z m-3340 -2884 c25
-13 29 -13 34 2 12 30 31 -10 27 -54 0 -7 -9 -13 -20 -13 -21 0 -45 -23 -34
-33 3 -4 -1 -7 -9 -7 -20 0 -32 30 -18 44 5 5 10 16 10 23 0 16 -36 17 -45 2
-4 -5 -19 -8 -33 -5 -15 3 -38 0 -52 -7 -21 -11 -30 -11 -57 2 -49 22 -44 45
8 37 23 -4 46 -2 53 3 28 23 97 26 136 6z"></path>
<path d="M5230 1983 c-19 -86 -50 -160 -98 -236 -93 -145 -182 -330 -167 -345
7 -7 7 -7 40 73 39 95 101 193 190 303 26 33 34 49 29 68 -4 14 -2 24 4 24 11
0 17 25 27 113 4 32 2 57 -3 57 -5 0 -15 -26 -22 -57z"></path>
<path d="M5320 2000 c0 -5 5 -10 10 -10 6 0 10 5 10 10 0 6 -4 10 -10 10 -5 0
-10 -4 -10 -10z"></path>
<path d="M6090 1943 c0 -42 24 -93 79 -173 33 -47 79 -119 102 -160 24 -41 44
-69 46 -63 5 14 -13 49 -95 186 -36 60 -75 134 -88 165 -23 57 -44 79 -44 45z"></path>
<path d="M5531 1810 c-2 -4 -74 -448 -88 -540 -4 -27 -3 -32 7 -23 14 13 92
505 87 543 -2 14 -5 23 -6 20z"></path>
<path d="M5774 1768 c3 -13 33 -138 67 -278 72 -300 66 -280 78 -280 19 0 20
33 3 58 -10 15 -24 52 -30 82 -37 173 -107 440 -115 440 -5 0 -7 -10 -3 -22z"></path>
<path d="M5610 1611 c0 -160 -1 -169 -20 -174 -40 -10 -32 -64 11 -70 8 -2 20
-7 28 -11 11 -7 13 -5 8 7 -4 11 -1 17 8 17 8 0 15 5 15 10 0 6 7 10 15 10 14
0 19 -12 16 -32 -2 -14 34 -9 57 8 46 32 22 65 -54 73 l-59 6 -3 163 c-1 97
-6 162 -12 162 -6 0 -10 -66 -10 -169z m129 -187 c9 -9 -5 -12 -31 -7 -16 3
-28 10 -28 15 0 9 49 3 59 -8z"></path>
<path d="M5180 1670 c0 -5 5 -10 10 -10 6 0 10 5 10 10 0 6 -4 10 -10 10 -5 0
-10 -4 -10 -10z"></path>
<path d="M1740 1573 c-23 -104 -53 -177 -108 -262 -62 -94 -137 -241 -148
-286 -10 -43 5 -24 35 43 36 80 117 208 169 267 36 40 43 54 38 77 -3 15 -1
28 4 28 11 0 22 34 26 80 2 19 6 52 10 73 10 60 -11 43 -26 -20z"></path>
<path d="M5155 1570 c3 -5 8 -10 11 -10 2 0 4 5 4 10 0 6 -5 10 -11 10 -5 0
-7 -4 -4 -10z"></path>
<path d="M2597 1534 c-12 -12 25 -111 62 -165 23 -33 41 -63 41 -68 0 -4 11
-18 25 -31 14 -13 25 -29 25 -36 0 -7 11 -26 25 -41 l25 -28 -10 29 c-6 16
-34 68 -63 115 -54 89 -107 192 -107 210 0 12 -15 22 -23 15z"></path>
<path d="M5126 1531 c-4 -5 -2 -12 3 -15 5 -4 12 -2 15 3 4 5 2 12 -3 15 -5 4
-12 2 -15 -3z"></path>
<path d="M5006 1408 c-17 -24 -21 -48 -8 -48 5 0 13 16 19 35 13 41 10 44 -11
13z"></path>
<path d="M4950 1370 c0 -5 5 -10 10 -10 6 0 10 5 10 10 0 6 -4 10 -10 10 -5 0
-10 -4 -10 -10z"></path>
<path d="M2110 1315 c0 -30 5 -55 10 -55 6 0 10 25 10 55 0 30 -4 55 -10 55
-5 0 -10 -25 -10 -55z"></path>
<path d="M4940 1310 c0 -11 5 -20 10 -20 6 0 10 9 10 20 0 11 -4 20 -10 20 -5
0 -10 -9 -10 -20z"></path>
<path d="M1685 1250 c-3 -5 -1 -10 4 -10 6 0 11 5 11 10 0 6 -2 10 -4 10 -3 0
-8 -4 -11 -10z"></path>
<path d="M1665 1151 c-3 -5 -1 -12 5 -16 5 -3 10 1 10 9 0 18 -6 21 -15 7z"></path>
<path d="M5393 1126 c-13 -6 -23 -14 -23 -18 0 -14 17 -8 35 12 20 22 20 22
-12 6z"></path>
<path d="M2120 1085 c0 -19 5 -35 10 -35 6 0 10 16 10 35 0 19 -4 35 -10 35
-5 0 -10 -16 -10 -35z"></path>
<path d="M5920 1104 c0 -9 -9 -18 -20 -21 -23 -6 -27 -23 -6 -23 30 0 46 13
46 36 0 13 -4 24 -10 24 -5 0 -10 -7 -10 -16z"></path>
<path d="M1635 1100 c-3 -5 -1 -10 4 -10 6 0 11 5 11 10 0 6 -2 10 -4 10 -3 0
-8 -4 -11 -10z"></path>
<path d="M6320 1017 c0 -78 -156 -293 -280 -386 -73 -54 -231 -126 -302 -138
-21 -3 -38 -9 -38 -14 0 -14 24 -11 97 12 162 49 268 114 356 216 37 43 78 90
91 104 55 59 119 229 86 229 -5 0 -10 -10 -10 -23z"></path>
<path d="M2093 1014 c-28 -20 -31 -62 -5 -70 9 -3 25 -10 36 -16 12 -6 22 -6
29 1 8 8 7 11 -3 11 -11 1 -10 5 4 15 29 22 49 19 43 -6 -5 -18 -2 -20 21 -14
15 3 36 15 47 26 19 19 19 19 -3 41 -29 29 -135 37 -169 12z m147 -14 c12 -8
12 -10 -5 -9 -11 0 -29 4 -40 9 -18 8 -18 9 5 9 14 0 32 -4 40 -9z"></path>
<path d="M4940 1020 c0 -5 5 -10 10 -10 6 0 10 5 10 10 0 6 -4 10 -10 10 -5 0
-10 -4 -10 -10z"></path>
<path d="M5750 1010 c0 -5 5 -10 10 -10 6 0 10 5 10 10 0 6 -4 10 -10 10 -5 0
-10 -4 -10 -10z"></path>
<path d="M1506 968 c-9 -17 -14 -34 -11 -36 3 -3 6 -3 8 -1 25 43 36 69 28 69
-5 0 -17 -14 -25 -32z"></path>
<path d="M1460 960 c0 -5 5 -10 10 -10 6 0 10 5 10 10 0 6 -4 10 -10 10 -5 0
-10 -4 -10 -10z"></path>
<path d="M1450 910 c0 -11 5 -20 10 -20 6 0 10 9 10 20 0 11 -4 20 -10 20 -5
0 -10 -9 -10 -20z"></path>
<path d="M1910 710 c0 -5 5 -10 10 -10 6 0 10 5 10 10 0 6 -4 10 -10 10 -5 0
-10 -4 -10 -10z"></path>
<path d="M2420 706 c0 -8 5 -18 10 -21 6 -3 10 1 10 9 0 8 -4 18 -10 21 -5 3
-10 -1 -10 -9z"></path>
<path d="M1870 680 c0 -5 9 -14 21 -20 19 -11 20 -10 9 9 -11 22 -30 29 -30
11z"></path>
<path d="M2416 657 c-11 -8 -15 -17 -10 -20 14 -8 37 8 33 22 -3 8 -10 8 -23
-2z"></path>
<path d="M1440 620 c0 -5 5 -10 10 -10 6 0 10 5 10 10 0 6 -4 10 -10 10 -5 0
-10 -4 -10 -10z"></path>
<path d="M1990 602 c0 -5 7 -13 16 -16 10 -4 14 -1 12 6 -5 15 -28 23 -28 10z"></path>
<path d="M2820 582 c0 -79 -146 -279 -275 -377 -67 -50 -249 -135 -290 -135
-8 0 -15 -5 -15 -11 0 -7 9 -9 23 -5 12 4 46 13 75 21 29 8 94 36 144 62 80
42 102 61 190 158 65 72 110 132 130 173 33 68 48 142 29 142 -6 0 -11 -12
-11 -28z"></path>
<path d="M5405 510 c3 -5 10 -10 16 -10 5 0 9 5 9 10 0 6 -7 10 -16 10 -8 0
-12 -4 -9 -10z"></path>
<path d="M5490 490 c0 -5 5 -10 10 -10 6 0 10 5 10 10 0 6 -4 10 -10 10 -5 0
-10 -4 -10 -10z"></path>
<path d="M5530 480 c0 -5 11 -10 25 -10 14 0 25 5 25 10 0 6 -11 10 -25 10
-14 0 -25 -4 -25 -10z"></path>
<path d="M2201 124 c0 -11 3 -14 6 -6 3 7 2 16 -1 19 -3 4 -6 -2 -5 -13z"></path>
<path d="M1896 91 c15 -14 54 -23 54 -13 0 5 -10 12 -22 16 -33 8 -44 8 -32
-3z"></path>
<path d="M1970 70 c0 -5 5 -10 10 -10 6 0 10 5 10 10 0 6 -4 10 -10 10 -5 0
-10 -4 -10 -10z"></path>
<path d="M2010 60 c0 -5 7 -10 15 -10 8 0 15 5 15 10 0 6 -7 10 -15 10 -8 0
-15 -4 -15 -10z"></path>
<path d="M2090 50 c0 -5 7 -10 15 -10 8 0 15 5 15 10 0 6 -7 10 -15 10 -8 0
-15 -4 -15 -10z"></path>
<path d="M2150 50 c0 -5 16 -10 35 -10 19 0 35 5 35 10 0 6 -16 10 -35 10 -19
0 -35 -4 -35 -10z"></path>
</g>
</svg>